<svg version="1.1" xmlns="http://www.w3.org/2000/svg" viewBox="0 0 48 48">
  <path fill="#EA4335" d="M24 9.5c3.54 0 6.71 1.22 9.21 3.6l6.85-6.85C35.9 2.15 30.07 0 24 0 14.62 0 6.51 5.34 2.56 13.22l7.98 6.19C12.43 13.72 17.7 9.5 24 9.5z"/>
  <path fill="#4285F4" d="M46.98 24.5c0-.85-.06-1.66-.2-2.46H24v4.61h12.48c-.56 2.92-2.19 5.38-4.72 7.18l7.98 6.19c4.61-4.51 7.27-11.16 7.27-19.12z"/>
  <path fill="#FBBC04" d="M10.53 28.59c-.48-1.45-.76-2.99-.76-4.59s.27-3.14-.76-4.59l-7.98-6.19C3.05 15.61 0 19.78 0 24s3.05 8.39 7.55 11.82l7.98-6.19z"/>
  <path fill="#34A853" d="M24 48c6.48 0 11.93-2.13 15.89-5.81l-7.98-6.19c-2.06 1.35-4.86 2.13-7.91 2.13-6.29 0-11.56-4.22-13.47-9.91l-7.98 6.19C6.51 42.66 14.62 48 24 48z"/>
  <path fill="none" d="M0 0h48v48H0z"/>
</svg>